<svg xmlns="http://www.w3.org/2000/svg" width="3000" height="4000" viewBox="0 0 3000 4000">
  <defs>
    <style>
      .cls-1 {
        fill: #f2f0e5;
      }

      .cls-1, .cls-2, .cls-3 {
        fill-rule: evenodd;
      }

      .cls-2 {
        fill: #b45252;
      }

      .cls-3 {
        fill: #45444f;
      }
    </style>
  </defs>
  <path id="FrontBumper" class="cls-1" d="M2154.27,2420.33c18.09,310.25,50.85,572.46,51.08,722.71,0.11,71.98,32.2,263.85-277.69,370.18-280.46,96.23-689.68,92.63-992.931-68.93C830.66,3388.84,806.667,3230.32,801.25,3120.5c-6.071-123.06,19.833-224.47,28.534-319.91,2.642-74.77,14.7-375.78,24.105-481.9,8.722,243.66,25.754,487.38,34.475,731.04,1.049,80.4-22.109,235.12,25.447,307.36,35.249,53.55,94.009,75.19,133.079,91.16,279.18,114.1,535.01,120.14,814.26,40.16,61.04-17.48,225.86-73.76,261.4-179.07C2130.41,3046.27,2146.41,2683.4,2154.27,2420.33Z"/>
  <path id="RearBumper" class="cls-1" d="M852.675,1604.2c-18.137-310.07-34-571.84-34.25-721.995C818.3,810.267,792.019,516.6,1100,473.881c293.47-40.7,685.72-71.813,988.81,89.708,104.01,55.43,119.81,238.9,116.9,348.739-4.7,177.422-3.84,216.992-12.52,312.362-2.62,74.72-22.46,366.76-31.84,472.82-8.76-243.51-17.98-478.31-26.74-721.818-1.07-80.344-6.38-223.573-53.91-295.777-35.24-53.519-65.55-86.554-104.6-102.52-279.02-114.074-538.72-83.8-817.78-3.917-61,17.461-238.037,17.381-257.179,142.545C893.334,978.932,860.482,1341.29,852.675,1604.2Z"/>
  <path id="Body" class="cls-2" d="M1499.86,3551.33s514.68-23.77,635.19-221.24c15.99-302.91,83.7-2485.5-33.62-2670.98C2014.86,532.525,1637.7,494.259,1536.19,485.6s-521.91,77.792-614.527,158.9C791.536,857.724,866.151,2998,884.7,3336.37,971.654,3504.41,1499.86,3551.33,1499.86,3551.33Z"/>
  <path id="Windows" class="cls-3" d="M1925.79,1062.03q6.24,6.225,12.48,12.44c5.87,38.9-2.19,314.67-36.81,336.54l-186.93,4.47c-120.03.2-529.22,44.27-618.98-19.72q-10.665-159.885-21.31-319.82C1240.82,971.5,1734.38,1041.35,1925.79,1062.03Zm129.27,294.72c51.73,88.31,23.5,238.04,25.49,332.27q4.785,373.83,9.58,747.71c31.96,12.18,35.26,15.68,54.08,45.61-5.03,31.65-16.23,85.79-53.83,103.94-100.55-282.73-123.02-603.67-92.9-888.81C2008.87,1589.67,1982.53,1462.83,2055.06,1356.75Zm-77.32,943.09c23.22,72.08,103.68,323.81,87.89,386.18-38.89,131.33-207.53,194.05-298.72,216.51-242.64,59.78-638.42,94.47-822.878-222.92q47.445-189.06,94.9-378.17C1270.47,2438.78,1746.59,2437.07,1977.74,2299.84ZM958.4,1358.61c69.877,100.93,47.547,221.2,58.707,323.91,24.63,226.67,15.92,694.68-94,909.9l-16.644-16.59c-21.206-40.9-29.812-64.32-29.254-103.8q24.892-16.665,49.791-33.32,5.508-425.76,11.015-851.59C945.878,1512.47,922.729,1433.21,958.4,1358.61Z"/>
</svg>
